<?xml version="1.0" standalone="no"?>
<!DOCTYPE svg PUBLIC "-//W3C//DTD SVG 20010904//EN"
 "http://www.w3.org/TR/2001/REC-SVG-20010904/DTD/svg10.dtd">
<svg version="1.0" xmlns="http://www.w3.org/2000/svg"
 width="452.000000pt" height="512.000000pt" viewBox="0 0 452.000000 512.000000"
 preserveAspectRatio="xMidYMid meet">

<g transform="translate(0.000000,512.000000) scale(0.100000,-0.100000)"
fill="#000000" stroke="none">
<path d="M1149 4432 l-1144 -678 -3 -211 -2 -210 82 -50 83 -49 3 -501 2 -500
-82 -50 -83 -49 0 -383 0 -384 1145 -678 1145 -679 6 78 5 77 2 -77 2 -77
1105 681 1105 680 -2 211 -3 210 -82 35 -83 35 0 999 c0 601 -4 997 -9 994 -5
-4 -11 -2 -13 3 -1 5 -205 134 -453 286 -1357 837 -1565 965 -1573 965 -4 0
-523 -305 -1153 -678z m-1059 -728 c0 -2 -9 0 -20 6 -11 6 -20 13 -20 16 0 2
9 0 20 -6 11 -6 20 -13 20 -16z m50 -30 c0 -2 -9 0 -20 6 -11 6 -20 13 -20 16
0 2 9 0 20 -6 11 -6 20 -13 20 -16z m-50 -1590 c0 -2 -9 0 -20 6 -11 6 -20 13
-20 16 0 2 9 0 20 -6 11 -6 20 -13 20 -16z"/>
</g>
</svg>
